<svg width="25" height="24" viewBox="0 0 25 24" fill="none" xmlns="http://www.w3.org/2000/svg">
    <g opacity="0.9">
        <path
            d="M12.4801 19.4262C16.5726 19.4262 19.8903 16.1085 19.8903 12.016C19.8903 7.92339 16.5726 4.60571 12.4801 4.60571C8.3875 4.60571 5.06982 7.92339 5.06982 12.016C5.06982 16.1085 8.3875 19.4262 12.4801 19.4262Z"
            fill="#5E60CE" />
        <path
            d="M12.4643 4.85955C13.8765 4.85955 15.2571 5.27834 16.4313 6.06294C17.6056 6.84755 18.5208 7.96275 19.0612 9.2675C19.6017 10.5723 19.7431 12.008 19.4676 13.3931C19.1921 14.7782 18.512 16.0505 17.5134 17.0491C16.5148 18.0478 15.2424 18.7278 13.8573 19.0033C12.4722 19.2789 11.0365 19.1375 9.73173 18.597C8.42697 18.0566 7.31178 17.1413 6.52717 15.9671C5.74257 14.7928 5.32378 13.4123 5.32378 12C5.3311 10.1085 6.08574 8.29656 7.42326 6.95904C8.76079 5.62152 10.5728 4.86687 12.4643 4.85955ZM12.4643 3.27278C10.7397 3.27983 9.05592 3.79767 7.62543 4.76091C6.19494 5.72416 5.08191 7.08962 4.42683 8.68493C3.77176 10.2802 3.60401 12.0339 3.94478 13.7244C4.28554 15.415 5.11954 16.9667 6.34148 18.1837C7.56342 19.4006 9.11852 20.2283 10.8105 20.5621C12.5024 20.896 14.2553 20.7211 15.848 20.0595C17.4406 19.3979 18.8015 18.2793 19.7589 16.8449C20.7163 15.4105 21.2272 13.7246 21.2273 12C21.2273 10.851 21.0003 9.71318 20.5595 8.652C20.1187 7.59083 19.4727 6.62715 18.6585 5.81628C17.8443 5.00541 16.878 4.36331 15.815 3.92683C14.7521 3.49035 13.6134 3.26808 12.4643 3.27278Z"
            fill="#5E60CE" />
        <path
            d="M15.9306 9.34209L11.5986 13.674L9.11618 11.1916L8.28027 12.0275L11.5986 15.3458L16.7665 10.178L15.9306 9.34209Z"
            fill="#F2F2F2" />
    </g>
</svg>
    