<svg width="91" height="52" viewBox="0 0 91 52" fill="none" xmlns="http://www.w3.org/2000/svg">
    <rect x="0.5" width="90" height="52" rx="8" fill="#4EA8DE" />
    <path
        d="M26.3686 24.3828H24.1911C24.1513 24.1011 24.0701 23.8509 23.9474 23.6321C23.8248 23.41 23.6674 23.2211 23.4751 23.0653C23.2829 22.9096 23.0608 22.7902 22.8089 22.7074C22.5604 22.6245 22.2902 22.5831 21.9986 22.5831C21.4716 22.5831 21.0125 22.714 20.6214 22.9759C20.2304 23.2344 19.9271 23.6122 19.7116 24.1094C19.4962 24.6032 19.3885 25.2031 19.3885 25.9091C19.3885 26.6349 19.4962 27.2448 19.7116 27.7386C19.9304 28.2325 20.2353 28.6054 20.6264 28.8572C21.0175 29.1091 21.4699 29.2351 21.9837 29.2351C22.272 29.2351 22.5388 29.197 22.7841 29.1207C23.0327 29.0445 23.2531 28.9335 23.4453 28.7876C23.6375 28.6385 23.7966 28.4579 23.9226 28.2457C24.0518 28.0336 24.1413 27.7917 24.1911 27.5199L26.3686 27.5298C26.3123 27.9972 26.1714 28.4479 25.946 28.8821C25.724 29.313 25.424 29.6991 25.0462 30.0405C24.6716 30.3786 24.2242 30.647 23.7038 30.8459C23.1868 31.0414 22.6018 31.1392 21.9489 31.1392C21.0407 31.1392 20.2287 30.9337 19.5128 30.5227C18.8002 30.1117 18.2367 29.5168 17.8224 28.7379C17.4115 27.959 17.206 27.0161 17.206 25.9091C17.206 24.7988 17.4148 23.8542 17.8324 23.0753C18.25 22.2964 18.8168 21.7031 19.5327 21.2955C20.2486 20.8845 21.054 20.679 21.9489 20.679C22.5388 20.679 23.0857 20.7618 23.5895 20.9276C24.0966 21.0933 24.5457 21.3352 24.9368 21.6534C25.3279 21.9683 25.6461 22.3544 25.8913 22.8118C26.1399 23.2692 26.299 23.7929 26.3686 24.3828ZM27.8725 31V23.3636H29.9258V24.696H30.0053C30.1445 24.2221 30.3782 23.8641 30.7063 23.6222C31.0344 23.3769 31.4123 23.2543 31.8398 23.2543C31.9459 23.2543 32.0603 23.2609 32.1829 23.2741C32.3055 23.2874 32.4132 23.3056 32.506 23.3288V25.2081C32.4066 25.1783 32.2691 25.1518 32.0934 25.1286C31.9177 25.1054 31.757 25.0938 31.6112 25.0938C31.2996 25.0938 31.0212 25.1617 30.7759 25.2976C30.534 25.4302 30.3417 25.6158 30.1992 25.8544C30.06 26.093 29.9904 26.3681 29.9904 26.6797V31H27.8725ZM33.601 31V23.3636H35.7189V31H33.601ZM34.665 22.3793C34.3501 22.3793 34.08 22.2749 33.8546 22.0661C33.6325 21.8539 33.5215 21.6004 33.5215 21.3054C33.5215 21.0137 33.6325 20.7635 33.8546 20.5547C34.08 20.3426 34.3501 20.2365 34.665 20.2365C34.9798 20.2365 35.2483 20.3426 35.4703 20.5547C35.6957 20.7635 35.8084 21.0137 35.8084 21.3054C35.8084 21.6004 35.6957 21.8539 35.4703 22.0661C35.2483 22.2749 34.9798 22.3793 34.665 22.3793ZM39.593 31.1442C39.1058 31.1442 38.6716 31.0597 38.2905 30.8906C37.9093 30.7183 37.6077 30.4647 37.3857 30.13C37.1669 29.7919 37.0575 29.371 37.0575 28.8672C37.0575 28.4429 37.1354 28.0866 37.2912 27.7983C37.447 27.5099 37.6591 27.2779 37.9276 27.1023C38.196 26.9266 38.5009 26.794 38.8423 26.7045C39.187 26.6151 39.5483 26.5521 39.9261 26.5156C40.3703 26.4692 40.7282 26.4261 41 26.3864C41.2718 26.3433 41.469 26.2803 41.5916 26.1974C41.7143 26.1146 41.7756 25.992 41.7756 25.8295V25.7997C41.7756 25.4848 41.6761 25.2412 41.4773 25.0689C41.2817 24.8965 41.0033 24.8104 40.642 24.8104C40.2609 24.8104 39.9576 24.8949 39.7322 25.0639C39.5069 25.2296 39.3577 25.4384 39.2848 25.6903L37.326 25.5312C37.4254 25.0672 37.621 24.6662 37.9126 24.3281C38.2043 23.9867 38.5805 23.7249 39.0412 23.5426C39.5052 23.357 40.0421 23.2642 40.652 23.2642C41.0762 23.2642 41.4822 23.3139 41.87 23.4134C42.2611 23.5128 42.6075 23.6669 42.9091 23.8757C43.214 24.0845 43.4543 24.353 43.63 24.6811C43.8056 25.0059 43.8935 25.3954 43.8935 25.8494V31H41.8849V29.9411H41.8253C41.7027 30.1797 41.5386 30.3902 41.3331 30.5724C41.1276 30.7514 40.8807 30.8923 40.5923 30.995C40.304 31.0945 39.9709 31.1442 39.593 31.1442ZM40.1996 29.6825C40.5111 29.6825 40.7862 29.6212 41.0249 29.4986C41.2635 29.3726 41.4508 29.2036 41.5866 28.9915C41.7225 28.7794 41.7905 28.5391 41.7905 28.2706V27.4602C41.7242 27.5033 41.633 27.5431 41.517 27.5795C41.4044 27.6127 41.2768 27.6442 41.1342 27.674C40.9917 27.7005 40.8492 27.7254 40.7067 27.7486C40.5642 27.7685 40.4349 27.7867 40.3189 27.8033C40.0703 27.8397 39.8532 27.8977 39.6676 27.9773C39.482 28.0568 39.3378 28.1645 39.2351 28.3004C39.1323 28.433 39.081 28.5987 39.081 28.7976C39.081 29.0859 39.1854 29.3063 39.3942 29.4588C39.6063 29.608 39.8748 29.6825 40.1996 29.6825ZM45.5366 31V23.3636H47.5898V24.696H47.6694C47.8086 24.2221 48.0423 23.8641 48.3704 23.6222C48.6985 23.3769 49.0763 23.2543 49.5039 23.2543C49.61 23.2543 49.7243 23.2609 49.8469 23.2741C49.9696 23.2874 50.0773 23.3056 50.1701 23.3288V25.2081C50.0707 25.1783 49.9331 25.1518 49.7575 25.1286C49.5818 25.1054 49.421 25.0938 49.2752 25.0938C48.9637 25.0938 48.6853 25.1617 48.44 25.2976C48.198 25.4302 48.0058 25.6158 47.8633 25.8544C47.7241 26.093 47.6545 26.3681 47.6545 26.6797V31H45.5366Z"
        fill="#F2F2F2" />
    <g clip-path="url(#clip0_12_512)">
        <path
            d="M66.4837 19.4516C67.7757 19.4516 69.0386 19.8347 70.1128 20.5525C71.187 21.2703 72.0242 22.2904 72.5186 23.484C73.013 24.6776 73.1424 25.991 72.8903 27.2581C72.6383 28.5252 72.0161 29.6891 71.1026 30.6026C70.1891 31.5162 69.0252 32.1383 67.7581 32.3903C66.491 32.6424 65.1776 32.513 63.984 32.0186C62.7904 31.5242 61.7702 30.687 61.0525 29.6128C60.3347 28.5386 59.9516 27.2757 59.9516 25.9837C59.9583 24.2534 60.6487 22.5958 61.8722 21.3722C63.0958 20.1487 64.7534 19.4583 66.4837 19.4516ZM66.4837 18.0001C64.9061 18.0065 63.3658 18.4802 62.0572 19.3614C60.7486 20.2426 59.7304 21.4917 59.1311 22.9511C58.5318 24.4105 58.3784 26.0147 58.6901 27.5612C59.0019 29.1077 59.7648 30.5272 60.8826 31.6405C62.0004 32.7538 63.423 33.5109 64.9708 33.8163C66.5186 34.1217 68.1222 33.9617 69.5791 33.3565C71.036 32.7513 72.281 31.728 73.1568 30.4158C74.0326 29.1036 74.5 27.5614 74.5001 25.9837C74.5001 24.9326 74.2925 23.8917 73.8892 22.921C73.486 21.9502 72.895 21.0686 72.1502 20.3269C71.4053 19.5851 70.5214 18.9977 69.549 18.5984C68.5766 18.1991 67.5349 17.9958 66.4837 18.0001Z"
            fill="#F2F2F2" />
        <path
            d="M70.207 25.3813H66.9954V22.1697H65.914V25.3813H62.6987V26.4627H65.914V29.6743H66.9954V26.4627H70.207V25.3813Z"
            fill="#F2F2F2" />
    </g>
    <defs>
        <clipPath id="clip0_12_512">
            <rect width="16" height="16" fill="white" transform="translate(58.5 18)" />
        </clipPath>
    </defs>
</svg>
    